<svg id="visual" viewBox="0 0 900 600" width="900" height="600" xmlns="http://www.w3.org/2000/svg" xmlns:xlink="http://www.w3.org/1999/xlink" version="1.1"><g stroke-width="1" stroke-linejoin="bevel"><path d="M396 313L300 420L423 408Z" fill="#424242" stroke="#424242"></path><path d="M396 313L287 286L300 420Z" fill="#262626" stroke="#262626"></path><path d="M300 420L385 527L423 408Z" fill="#4c4c4c" stroke="#4c4c4c"></path><path d="M189 432L273 505L300 420Z" fill="#565656" stroke="#565656"></path><path d="M300 420L273 505L385 527Z" fill="#6b6b6b" stroke="#6b6b6b"></path><path d="M396 313L325 210L287 286Z" fill="#424242" stroke="#424242"></path><path d="M187 182L212 289L287 286Z" fill="#383838" stroke="#383838"></path><path d="M287 286L212 289L300 420Z" fill="#565656" stroke="#565656"></path><path d="M515 464L524 414L423 408Z" fill="#383838" stroke="#383838"></path><path d="M423 408L505 264L396 313Z" fill="#262626" stroke="#262626"></path><path d="M396 313L369 193L325 210Z" fill="#818181" stroke="#818181"></path><path d="M212 289L189 432L300 420Z" fill="#818181" stroke="#818181"></path><path d="M385 527L515 464L423 408Z" fill="#262626" stroke="#262626"></path><path d="M482 208L369 193L396 313Z" fill="#565656" stroke="#565656"></path><path d="M524 414L505 264L423 408Z" fill="#6b6b6b" stroke="#6b6b6b"></path><path d="M505 264L482 208L396 313Z" fill="#606060" stroke="#606060"></path><path d="M515 464L561 431L524 414Z" fill="#565656" stroke="#565656"></path><path d="M524 414L578 303L505 264Z" fill="#565656" stroke="#565656"></path><path d="M189 432L197 512L273 505Z" fill="#4c4c4c" stroke="#4c4c4c"></path><path d="M326 600L383 600L385 527Z" fill="#8c8c8c" stroke="#8c8c8c"></path><path d="M326 600L385 527L273 505Z" fill="#2f2f2f" stroke="#2f2f2f"></path><path d="M511 600L561 504L515 464Z" fill="#383838" stroke="#383838"></path><path d="M515 464L561 504L561 431Z" fill="#606060" stroke="#606060"></path><path d="M180 600L326 600L273 505Z" fill="#424242" stroke="#424242"></path><path d="M561 431L578 303L524 414Z" fill="#818181" stroke="#818181"></path><path d="M505 264L570 173L482 208Z" fill="#383838" stroke="#383838"></path><path d="M511 600L515 464L385 527Z" fill="#424242" stroke="#424242"></path><path d="M561 431L680 362L578 303Z" fill="#383838" stroke="#383838"></path><path d="M306 84L187 182L325 210Z" fill="#8c8c8c" stroke="#8c8c8c"></path><path d="M325 210L187 182L287 286Z" fill="#565656" stroke="#565656"></path><path d="M212 289L100 305L189 432Z" fill="#767676" stroke="#767676"></path><path d="M89 219L100 305L212 289Z" fill="#565656" stroke="#565656"></path><path d="M189 432L64 492L197 512Z" fill="#6b6b6b" stroke="#6b6b6b"></path><path d="M383 600L511 600L385 527Z" fill="#565656" stroke="#565656"></path><path d="M100 305L75 387L189 432Z" fill="#606060" stroke="#606060"></path><path d="M121 600L180 600L197 512Z" fill="#262626" stroke="#262626"></path><path d="M197 512L180 600L273 505Z" fill="#6b6b6b" stroke="#6b6b6b"></path><path d="M482 208L399 90L369 193Z" fill="#424242" stroke="#424242"></path><path d="M369 193L306 84L325 210Z" fill="#6b6b6b" stroke="#6b6b6b"></path><path d="M522 131L399 90L482 208Z" fill="#606060" stroke="#606060"></path><path d="M578 303L570 173L505 264Z" fill="#4c4c4c" stroke="#4c4c4c"></path><path d="M570 173L522 131L482 208Z" fill="#4c4c4c" stroke="#4c4c4c"></path><path d="M399 90L306 84L369 193Z" fill="#565656" stroke="#565656"></path><path d="M187 182L89 219L212 289Z" fill="#818181" stroke="#818181"></path><path d="M0 315L0 421L75 387Z" fill="#262626" stroke="#262626"></path><path d="M121 81L89 219L187 182Z" fill="#6b6b6b" stroke="#6b6b6b"></path><path d="M0 421L64 492L75 387Z" fill="#8c8c8c" stroke="#8c8c8c"></path><path d="M75 387L64 492L189 432Z" fill="#767676" stroke="#767676"></path><path d="M673 492L561 431L561 504Z" fill="#424242" stroke="#424242"></path><path d="M673 492L680 362L561 431Z" fill="#565656" stroke="#565656"></path><path d="M578 303L696 211L570 173Z" fill="#8c8c8c" stroke="#8c8c8c"></path><path d="M64 492L121 600L197 512Z" fill="#383838" stroke="#383838"></path><path d="M319 0L236 70L306 84Z" fill="#606060" stroke="#606060"></path><path d="M306 84L236 70L187 182Z" fill="#262626" stroke="#262626"></path><path d="M625 600L673 492L561 504Z" fill="#383838" stroke="#383838"></path><path d="M511 600L625 600L561 504Z" fill="#767676" stroke="#767676"></path><path d="M0 315L75 387L100 305Z" fill="#4c4c4c" stroke="#4c4c4c"></path><path d="M64 492L0 600L121 600Z" fill="#818181" stroke="#818181"></path><path d="M89 219L0 315L100 305Z" fill="#4c4c4c" stroke="#4c4c4c"></path><path d="M680 362L707 260L578 303Z" fill="#383838" stroke="#383838"></path><path d="M570 173L627 119L522 131Z" fill="#262626" stroke="#262626"></path><path d="M783 330L707 260L680 362Z" fill="#606060" stroke="#606060"></path><path d="M696 211L627 119L570 173Z" fill="#8c8c8c" stroke="#8c8c8c"></path><path d="M410 0L319 0L399 90Z" fill="#4c4c4c" stroke="#4c4c4c"></path><path d="M707 260L696 211L578 303Z" fill="#262626" stroke="#262626"></path><path d="M410 0L399 90L512 0Z" fill="#818181" stroke="#818181"></path><path d="M399 90L319 0L306 84Z" fill="#606060" stroke="#606060"></path><path d="M226 0L121 81L236 70Z" fill="#4c4c4c" stroke="#4c4c4c"></path><path d="M236 70L121 81L187 182Z" fill="#424242" stroke="#424242"></path><path d="M89 219L0 174L0 315Z" fill="#2f2f2f" stroke="#2f2f2f"></path><path d="M512 0L399 90L522 131Z" fill="#383838" stroke="#383838"></path><path d="M0 421L0 515L64 492Z" fill="#424242" stroke="#424242"></path><path d="M319 0L226 0L236 70Z" fill="#606060" stroke="#606060"></path><path d="M562 0L512 0L522 131Z" fill="#767676" stroke="#767676"></path><path d="M0 62L0 174L121 81Z" fill="#767676" stroke="#767676"></path><path d="M121 81L0 174L89 219Z" fill="#565656" stroke="#565656"></path><path d="M0 515L0 600L64 492Z" fill="#767676" stroke="#767676"></path><path d="M704 97L562 0L627 119Z" fill="#2f2f2f" stroke="#2f2f2f"></path><path d="M627 119L562 0L522 131Z" fill="#2f2f2f" stroke="#2f2f2f"></path><path d="M765 513L680 362L673 492Z" fill="#565656" stroke="#565656"></path><path d="M824 375L783 330L680 362Z" fill="#424242" stroke="#424242"></path><path d="M707 260L804 225L696 211Z" fill="#818181" stroke="#818181"></path><path d="M696 211L704 97L627 119Z" fill="#8c8c8c" stroke="#8c8c8c"></path><path d="M732 600L765 513L673 492Z" fill="#383838" stroke="#383838"></path><path d="M625 600L732 600L673 492Z" fill="#383838" stroke="#383838"></path><path d="M804 225L704 97L696 211Z" fill="#262626" stroke="#262626"></path><path d="M765 513L824 375L680 362Z" fill="#262626" stroke="#262626"></path><path d="M783 330L804 225L707 260Z" fill="#8c8c8c" stroke="#8c8c8c"></path><path d="M900 415L824 375L900 462Z" fill="#565656" stroke="#565656"></path><path d="M732 600L768 600L765 513Z" fill="#6b6b6b" stroke="#6b6b6b"></path><path d="M226 0L74 0L121 81Z" fill="#565656" stroke="#565656"></path><path d="M900 271L804 225L783 330Z" fill="#767676" stroke="#767676"></path><path d="M74 0L0 62L121 81Z" fill="#383838" stroke="#383838"></path><path d="M74 0L0 0L0 62Z" fill="#424242" stroke="#424242"></path><path d="M790 69L729 0L704 97Z" fill="#424242" stroke="#424242"></path><path d="M704 97L729 0L562 0Z" fill="#424242" stroke="#424242"></path><path d="M900 160L790 69L804 225Z" fill="#818181" stroke="#818181"></path><path d="M804 225L790 69L704 97Z" fill="#767676" stroke="#767676"></path><path d="M900 462L824 375L765 513Z" fill="#8c8c8c" stroke="#8c8c8c"></path><path d="M824 375L900 271L783 330Z" fill="#8c8c8c" stroke="#8c8c8c"></path><path d="M900 600L900 462L765 513Z" fill="#565656" stroke="#565656"></path><path d="M900 415L900 271L824 375Z" fill="#262626" stroke="#262626"></path><path d="M900 271L900 160L804 225Z" fill="#606060" stroke="#606060"></path><path d="M790 69L832 0L729 0Z" fill="#424242" stroke="#424242"></path><path d="M768 600L900 600L765 513Z" fill="#4c4c4c" stroke="#4c4c4c"></path><path d="M900 91L832 0L790 69Z" fill="#262626" stroke="#262626"></path><path d="M900 160L900 91L790 69Z" fill="#424242" stroke="#424242"></path><path d="M900 91L900 0L832 0Z" fill="#565656" stroke="#565656"></path></g></svg>